<mxfile host="Electron" agent="Mozilla/5.0 (X11; Linux x86_64) AppleWebKit/537.36 (KHTML, like Gecko) draw.io/26.0.4 Chrome/128.0.6613.186 Electron/32.2.5 Safari/537.36" version="26.0.4">
  <diagram name="Page-1" id="4SKFwz4jvxgTCg3yx7xz">
    <mxGraphModel dx="3209" dy="3116" grid="1" gridSize="10" guides="1" tooltips="1" connect="1" arrows="1" fold="1" page="1" pageScale="1" pageWidth="850" pageHeight="1100" math="0" shadow="0">
      <root>
        <mxCell id="0" />
        <mxCell id="1" parent="0" />
        <mxCell id="xuWqswFsKTRzA6Kc5i4Z-1" value="&lt;b&gt;&lt;font&gt;Pause&lt;/font&gt;&lt;/b&gt;" style="text;html=1;align=center;verticalAlign=middle;whiteSpace=wrap;rounded=0;fontSize=50;" parent="1" vertex="1">
          <mxGeometry x="-900" y="-2070" width="1320" height="100" as="geometry" />
        </mxCell>
        <mxCell id="xuWqswFsKTRzA6Kc5i4Z-2" value="&lt;b&gt;&lt;font style=&quot;font-size: 40px;&quot;&gt;QGC/API&lt;/font&gt;&lt;/b&gt;" style="text;html=1;align=center;verticalAlign=middle;whiteSpace=wrap;rounded=0;" parent="1" vertex="1">
          <mxGeometry x="-400" y="-1900" width="320" height="60" as="geometry" />
        </mxCell>
        <mxCell id="xuWqswFsKTRzA6Kc5i4Z-3" value="&lt;b&gt;&lt;font style=&quot;font-size: 40px;&quot;&gt;SDK&lt;/font&gt;&lt;/b&gt;" style="text;html=1;align=center;verticalAlign=middle;whiteSpace=wrap;rounded=0;" parent="1" vertex="1">
          <mxGeometry x="-830" y="-1900" width="320" height="60" as="geometry" />
        </mxCell>
        <mxCell id="4xWppbJdqFPkYD1zHXKx-5" style="edgeStyle=orthogonalEdgeStyle;rounded=0;orthogonalLoop=1;jettySize=auto;html=1;exitX=0;exitY=0;exitDx=0;exitDy=0;" edge="1" parent="1" source="xuWqswFsKTRzA6Kc5i4Z-4">
          <mxGeometry relative="1" as="geometry">
            <mxPoint x="-10" y="-1900" as="targetPoint" />
          </mxGeometry>
        </mxCell>
        <mxCell id="xuWqswFsKTRzA6Kc5i4Z-4" value="&lt;b&gt;&lt;font style=&quot;font-size: 40px;&quot;&gt;FC&lt;/font&gt;&lt;/b&gt;" style="text;html=1;align=center;verticalAlign=middle;whiteSpace=wrap;rounded=0;" parent="1" vertex="1">
          <mxGeometry y="-1900" width="320" height="60" as="geometry" />
        </mxCell>
        <mxCell id="xuWqswFsKTRzA6Kc5i4Z-5" value="" style="rounded=0;whiteSpace=wrap;html=1;" parent="1" vertex="1">
          <mxGeometry x="-690" y="-1820" width="30" height="1010" as="geometry" />
        </mxCell>
        <mxCell id="xuWqswFsKTRzA6Kc5i4Z-6" value="" style="rounded=0;whiteSpace=wrap;html=1;" parent="1" vertex="1">
          <mxGeometry x="-255" y="-1820" width="30" height="1010" as="geometry" />
        </mxCell>
        <mxCell id="xuWqswFsKTRzA6Kc5i4Z-7" value="" style="rounded=0;whiteSpace=wrap;html=1;" parent="1" vertex="1">
          <mxGeometry x="145" y="-1830" width="30" height="1010" as="geometry" />
        </mxCell>
        <mxCell id="xuWqswFsKTRzA6Kc5i4Z-9" value="CMD: PAUSE" style="text;html=1;align=center;verticalAlign=middle;resizable=0;points=[];autosize=1;strokeColor=none;fillColor=none;" parent="1" vertex="1">
          <mxGeometry x="-526.9200000000001" y="-1720" width="100" height="30" as="geometry" />
        </mxCell>
        <mxCell id="xuWqswFsKTRzA6Kc5i4Z-10" value="Mission state PAUSED" style="rounded=0;whiteSpace=wrap;html=1;" parent="1" vertex="1">
          <mxGeometry x="100" y="-1670" width="120" height="60" as="geometry" />
        </mxCell>
        <mxCell id="4xWppbJdqFPkYD1zHXKx-66" style="edgeStyle=orthogonalEdgeStyle;rounded=0;orthogonalLoop=1;jettySize=auto;html=1;exitX=1;exitY=0.5;exitDx=0;exitDy=0;entryX=0;entryY=0.25;entryDx=0;entryDy=0;" edge="1" parent="1" source="xuWqswFsKTRzA6Kc5i4Z-11" target="4xWppbJdqFPkYD1zHXKx-62">
          <mxGeometry relative="1" as="geometry" />
        </mxCell>
        <mxCell id="xuWqswFsKTRzA6Kc5i4Z-11" value="Generate stopping traj (zero yaw)&lt;span style=&quot;color: rgba(0, 0, 0, 0); font-family: monospace; font-size: 0px; text-align: start; text-wrap: nowrap;&quot;&gt;%3CmxGraphModel%3E%3Croot%3E%3CmxCell%20id%3D%220%22%2F%3E%3CmxCell%20id%3D%221%22%20parent%3D%220%22%2F%3E%3CmxCell%20id%3D%222%22%20value%3D%22Mission%20state%20paused%22%20style%3D%22rounded%3D0%3BwhiteSpace%3Dwrap%3Bhtml%3D1%3B%22%20vertex%3D%221%22%20parent%3D%221%22%3E%3CmxGeometry%20x%3D%22160%22%20y%3D%22-1760%22%20width%3D%22120%22%20height%3D%2260%22%20as%3D%22geometry%22%2F%3E%3C%2FmxCell%3E%3C%2Froot%3E%3C%2FmxGraphModel%3E&lt;/span&gt;&lt;span style=&quot;color: rgba(0, 0, 0, 0); font-family: monospace; font-size: 0px; text-align: start; text-wrap: nowrap;&quot;&gt;%3CmxGraphModel%3E%3Croot%3E%3CmxCell%20id%3D%220%22%2F%3E%3CmxCell%20id%3D%221%22%20parent%3D%220%22%2F%3E%3CmxCell%20id%3D%222%22%20value%3D%22Mission%20state%20paused%22%20style%3D%22rounded%3D0%3BwhiteSpace%3Dwrap%3Bhtml%3D1%3B%22%20vertex%3D%221%22%20parent%3D%221%22%3E%3CmxGeometry%20x%3D%22160%22%20y%3D%22-1760%22%20width%3D%22120%22%20height%3D%2260%22%20as%3D%22geometry%22%2F%3E%3C%2FmxCell%3E%3C%2Froot%3E%3C%2FmxGraphModel%3E&lt;/span&gt;&lt;span style=&quot;color: rgba(0, 0, 0, 0); font-family: monospace; font-size: 0px; text-align: start; text-wrap: nowrap;&quot;&gt;%3CmxGraphModel%3E%3Croot%3E%3CmxCell%20id%3D%220%22%2F%3E%3CmxCell%20id%3D%221%22%20parent%3D%220%22%2F%3E%3CmxCell%20id%3D%222%22%20value%3D%22Mission%20state%20paused%22%20style%3D%22rounded%3D0%3BwhiteSpace%3Dwrap%3Bhtml%3D1%3B%22%20vertex%3D%221%22%20parent%3D%221%22%3E%3CmxGeometry%20x%3D%22160%22%20y%3D%22-1760%22%20width%3D%22120%22%20height%3D%2260%22%20as%3D%22geometry%22%2F%3E%3C%2FmxCell%3E%3C%2Froot%3E%3C%2FmxGraphModel%3E&lt;/span&gt;" style="rounded=0;whiteSpace=wrap;html=1;dashed=1;" parent="1" vertex="1">
          <mxGeometry x="100" y="-1590" width="120" height="60" as="geometry" />
        </mxCell>
        <mxCell id="4xWppbJdqFPkYD1zHXKx-67" style="edgeStyle=orthogonalEdgeStyle;rounded=0;orthogonalLoop=1;jettySize=auto;html=1;exitX=1;exitY=0.5;exitDx=0;exitDy=0;entryX=0;entryY=0.25;entryDx=0;entryDy=0;" edge="1" parent="1" source="xuWqswFsKTRzA6Kc5i4Z-12" target="4xWppbJdqFPkYD1zHXKx-62">
          <mxGeometry relative="1" as="geometry" />
        </mxCell>
        <mxCell id="xuWqswFsKTRzA6Kc5i4Z-12" value="Abort current traj and clear all queue" style="rounded=0;whiteSpace=wrap;html=1;dashed=1;" parent="1" vertex="1">
          <mxGeometry x="100" y="-1510" width="120" height="60" as="geometry" />
        </mxCell>
        <mxCell id="xuWqswFsKTRzA6Kc5i4Z-16" value="Pause mission" style="rounded=0;whiteSpace=wrap;html=1;" parent="1" vertex="1">
          <mxGeometry x="-735" y="-1772" width="120" height="60" as="geometry" />
        </mxCell>
        <mxCell id="xuWqswFsKTRzA6Kc5i4Z-18" value="CMD: RESUME" style="text;html=1;align=center;verticalAlign=middle;resizable=0;points=[];autosize=1;strokeColor=none;fillColor=none;" parent="1" vertex="1">
          <mxGeometry x="-531.92" y="-1440" width="110" height="30" as="geometry" />
        </mxCell>
        <mxCell id="xuWqswFsKTRzA6Kc5i4Z-19" value="Mission state RUNNING" style="rounded=0;whiteSpace=wrap;html=1;" parent="1" vertex="1">
          <mxGeometry x="100" y="-1110" width="120" height="60" as="geometry" />
        </mxCell>
        <mxCell id="xuWqswFsKTRzA6Kc5i4Z-22" value="Resume mission" style="rounded=0;whiteSpace=wrap;html=1;" parent="1" vertex="1">
          <mxGeometry x="-735" y="-1240" width="120" height="60" as="geometry" />
        </mxCell>
        <mxCell id="xuWqswFsKTRzA6Kc5i4Z-23" value="Get the last sp from mav subscriber" style="rounded=0;whiteSpace=wrap;html=1;" parent="1" vertex="1">
          <mxGeometry x="-735" y="-1380" width="120" height="60" as="geometry" />
        </mxCell>
        <mxCell id="xuWqswFsKTRzA6Kc5i4Z-24" value="Re-compute traj" style="rounded=0;whiteSpace=wrap;html=1;" parent="1" vertex="1">
          <mxGeometry x="-735" y="-1310" width="120" height="60" as="geometry" />
        </mxCell>
        <mxCell id="xuWqswFsKTRzA6Kc5i4Z-56" value="&lt;b&gt;&lt;font&gt;Cancel&lt;/font&gt;&lt;/b&gt;" style="text;html=1;align=center;verticalAlign=middle;whiteSpace=wrap;rounded=0;fontSize=50;" parent="1" vertex="1">
          <mxGeometry x="550" y="-2080" width="1320" height="100" as="geometry" />
        </mxCell>
        <mxCell id="xuWqswFsKTRzA6Kc5i4Z-111" value="&lt;b&gt;&lt;font&gt;Abort&lt;/font&gt;&lt;/b&gt;" style="text;html=1;align=center;verticalAlign=middle;whiteSpace=wrap;rounded=0;fontSize=50;" parent="1" vertex="1">
          <mxGeometry x="2260" y="-2070" width="1320" height="100" as="geometry" />
        </mxCell>
        <mxCell id="gtuBfe-_p5Uk6uLvwDwU-1" value="&lt;span style=&quot;color: rgba(0, 0, 0, 0); font-family: monospace; font-size: 0px; text-align: start;&quot;&gt;%3CmxGraphModel%3E%3Croot%3E%3CmxCell%20id%3D%220%22%2F%3E%3CmxCell%20id%3D%221%22%20parent%3D%220%22%2F%3E%3CmxCell%20id%3D%222%22%20value%3D%22%26lt%3Bdiv%20style%3D%26quot%3Btext-align%3A%20justify%3B%26quot%3B%26gt%3B%26lt%3Bspan%20style%3D%26quot%3Bfont-size%3A%2014px%3B%26quot%3B%26gt%3B-%20Create%20an%20RTL%20manager%20in%20PFL.%26lt%3B%2Fspan%26gt%3B%26lt%3B%2Fdiv%26gt%3B%26lt%3Bdiv%20style%3D%26quot%3Btext-align%3A%20justify%3B%26quot%3B%26gt%3B%26lt%3Bspan%20style%3D%26quot%3Bfont-size%3A%2014px%3B%26quot%3B%26gt%3B-%20Compute%20the%20trajectory%20inside%20RTL%20manager.%26lt%3B%2Fspan%26gt%3B%26lt%3B%2Fdiv%26gt%3B%26lt%3Bdiv%20style%3D%26quot%3Btext-align%3A%20justify%3B%26quot%3B%26gt%3B%26lt%3Bspan%20style%3D%26quot%3Bfont-size%3A%2014px%3B%26quot%3B%26gt%3B-%20Carry%20the%20logic%20inside%20RTL%20manager.%26lt%3B%2Fspan%26gt%3B%26lt%3B%2Fdiv%26gt%3B%26lt%3Bdiv%20style%3D%26quot%3Btext-align%3A%20justify%3B%26quot%3B%26gt%3B%26lt%3Bspan%20style%3D%26quot%3Bfont-size%3A%2014px%3B%26quot%3B%26gt%3B-%20Can%20other%20systems%20call%20RTL%20manager%20for%20RTL%20init%2C%26lt%3B%2Fspan%26gt%3B%26lt%3B%2Fdiv%26gt%3B%26lt%3Bdiv%20style%3D%26quot%3Btext-align%3A%20justify%3B%26quot%3B%26gt%3B%26lt%3Bspan%20style%3D%26quot%3Bfont-size%3A%2014px%3B%26quot%3B%26gt%3Bfor%20example%3A%20SDK%20Manager%2C%20QGC%2C%20SafetyManager.%26lt%3B%2Fspan%26gt%3B%26lt%3B%2Fdiv%26gt%3B%22%20style%3D%22text%3Bhtml%3D1%3Balign%3Dcenter%3BverticalAlign%3Dmiddle%3BwhiteSpace%3Dwrap%3Brounded%3D0%3BstrokeWidth%3D3%3BfillColor%3D%23e3c800%3BstrokeColor%3D%23B09500%3BfontStyle%3D1%3Bdashed%3D1%3BfontColor%3D%23000000%3B%22%20vertex%3D%221%22%20parent%3D%221%22%3E%3CmxGeometry%20x%3D%22430%22%20y%3D%22390%22%20width%3D%22350%22%20height%3D%22160%22%20as%3D%22geometry%22%2F%3E%3C%2FmxCell%3E%3C%2Froot%3E%3C%2FmxGraphModel%3E&lt;/span&gt;" style="text;html=1;align=center;verticalAlign=middle;resizable=0;points=[];autosize=1;strokeColor=none;fillColor=none;" parent="1" vertex="1">
          <mxGeometry x="-835" y="-1757" width="20" height="30" as="geometry" />
        </mxCell>
        <mxCell id="gtuBfe-_p5Uk6uLvwDwU-6" value="" style="endArrow=classic;html=1;rounded=0;exitX=0.876;exitY=0.054;exitDx=0;exitDy=0;exitPerimeter=0;entryX=-0.006;entryY=0.03;entryDx=0;entryDy=0;entryPerimeter=0;dashed=1;" parent="1" edge="1">
          <mxGeometry width="50" height="50" relative="1" as="geometry">
            <mxPoint x="-659.9999999999998" y="-1685.5" as="sourcePoint" />
            <mxPoint x="144.82000000000016" y="-1685.2" as="targetPoint" />
            <Array as="points">
              <mxPoint x="-471.28" y="-1685.04" />
            </Array>
          </mxGeometry>
        </mxCell>
        <mxCell id="gtuBfe-_p5Uk6uLvwDwU-7" value="CMD: PAUSE" style="text;html=1;align=center;verticalAlign=middle;resizable=0;points=[];autosize=1;strokeColor=none;fillColor=none;" parent="1" vertex="1">
          <mxGeometry x="-526.28" y="-1830" width="100" height="30" as="geometry" />
        </mxCell>
        <mxCell id="gtuBfe-_p5Uk6uLvwDwU-8" value="" style="endArrow=classic;html=1;rounded=0;exitX=0.876;exitY=0.054;exitDx=0;exitDy=0;exitPerimeter=0;entryX=-0.037;entryY=0.326;entryDx=0;entryDy=0;entryPerimeter=0;dashed=1;" parent="1" edge="1">
          <mxGeometry width="50" height="50" relative="1" as="geometry">
            <mxPoint x="-659.9999999999998" y="-1130" as="sourcePoint" />
            <mxPoint x="144.52999999999986" y="-1128.74" as="targetPoint" />
            <Array as="points">
              <mxPoint x="-471.28" y="-1129.54" />
            </Array>
          </mxGeometry>
        </mxCell>
        <mxCell id="gtuBfe-_p5Uk6uLvwDwU-9" value="CMD: RESUME" style="text;html=1;align=center;verticalAlign=middle;resizable=0;points=[];autosize=1;strokeColor=none;fillColor=none;" parent="1" vertex="1">
          <mxGeometry x="-550" y="-1170" width="110" height="30" as="geometry" />
        </mxCell>
        <mxCell id="gtuBfe-_p5Uk6uLvwDwU-10" value="&lt;h1 style=&quot;margin-top: 0px;&quot;&gt;CMD: PAUSE&lt;/h1&gt;&lt;p&gt;Pause command includes pausing behaviour, the default behaviour is smooth_stop for the waypoint mission steps.&amp;nbsp;&lt;/p&gt;" style="text;html=1;whiteSpace=wrap;overflow=hidden;rounded=0;" parent="1" vertex="1">
          <mxGeometry x="240" y="-1670" width="180" height="140" as="geometry" />
        </mxCell>
        <mxCell id="4xWppbJdqFPkYD1zHXKx-2" value="" style="endArrow=classic;html=1;rounded=0;exitX=0.067;exitY=0.023;exitDx=0;exitDy=0;exitPerimeter=0;entryX=0.9;entryY=0.023;entryDx=0;entryDy=0;entryPerimeter=0;dashed=1;" edge="1" parent="1" source="xuWqswFsKTRzA6Kc5i4Z-6" target="xuWqswFsKTRzA6Kc5i4Z-5">
          <mxGeometry width="50" height="50" relative="1" as="geometry">
            <mxPoint x="-310" y="-1620" as="sourcePoint" />
            <mxPoint x="-260" y="-1670" as="targetPoint" />
          </mxGeometry>
        </mxCell>
        <mxCell id="4xWppbJdqFPkYD1zHXKx-3" value="&lt;div style=&quot;text-align: justify;&quot;&gt;&lt;span style=&quot;font-size: 14px;&quot;&gt;SDK checks if the step is pausable or not. If pausable , directly pauses, if not, pauses at the end of the step.&amp;nbsp;&lt;/span&gt;&lt;/div&gt;" style="text;html=1;align=center;verticalAlign=middle;whiteSpace=wrap;rounded=0;strokeWidth=3;fillColor=#e3c800;strokeColor=#B09500;fontStyle=1;dashed=1;fontColor=#000000;" vertex="1" parent="1">
          <mxGeometry x="-990" y="-1789" width="230" height="94" as="geometry" />
        </mxCell>
        <mxCell id="4xWppbJdqFPkYD1zHXKx-4" value="" style="endArrow=classic;html=1;rounded=0;entryX=0.9;entryY=0.023;entryDx=0;entryDy=0;entryPerimeter=0;dashed=1;" edge="1" parent="1">
          <mxGeometry width="50" height="50" relative="1" as="geometry">
            <mxPoint x="-260" y="-1410" as="sourcePoint" />
            <mxPoint x="-660" y="-1410" as="targetPoint" />
          </mxGeometry>
        </mxCell>
        <mxCell id="4xWppbJdqFPkYD1zHXKx-8" value="&lt;b&gt;&lt;font style=&quot;font-size: 40px;&quot;&gt;QGC/API&lt;/font&gt;&lt;/b&gt;" style="text;html=1;align=center;verticalAlign=middle;whiteSpace=wrap;rounded=0;" vertex="1" parent="1">
          <mxGeometry x="1180" y="-1895" width="320" height="60" as="geometry" />
        </mxCell>
        <mxCell id="4xWppbJdqFPkYD1zHXKx-9" value="&lt;b&gt;&lt;font style=&quot;font-size: 40px;&quot;&gt;SDK&lt;/font&gt;&lt;/b&gt;" style="text;html=1;align=center;verticalAlign=middle;whiteSpace=wrap;rounded=0;" vertex="1" parent="1">
          <mxGeometry x="750" y="-1895" width="320" height="60" as="geometry" />
        </mxCell>
        <mxCell id="4xWppbJdqFPkYD1zHXKx-10" style="edgeStyle=orthogonalEdgeStyle;rounded=0;orthogonalLoop=1;jettySize=auto;html=1;exitX=0;exitY=0;exitDx=0;exitDy=0;" edge="1" parent="1" source="4xWppbJdqFPkYD1zHXKx-11">
          <mxGeometry relative="1" as="geometry">
            <mxPoint x="1570" y="-1895" as="targetPoint" />
          </mxGeometry>
        </mxCell>
        <mxCell id="4xWppbJdqFPkYD1zHXKx-11" value="&lt;b&gt;&lt;font style=&quot;font-size: 40px;&quot;&gt;FC&lt;/font&gt;&lt;/b&gt;" style="text;html=1;align=center;verticalAlign=middle;whiteSpace=wrap;rounded=0;" vertex="1" parent="1">
          <mxGeometry x="1580" y="-1895" width="320" height="60" as="geometry" />
        </mxCell>
        <mxCell id="4xWppbJdqFPkYD1zHXKx-12" value="" style="rounded=0;whiteSpace=wrap;html=1;" vertex="1" parent="1">
          <mxGeometry x="890" y="-1815" width="30" height="1010" as="geometry" />
        </mxCell>
        <mxCell id="4xWppbJdqFPkYD1zHXKx-13" value="" style="rounded=0;whiteSpace=wrap;html=1;" vertex="1" parent="1">
          <mxGeometry x="1325" y="-1815" width="30" height="1010" as="geometry" />
        </mxCell>
        <mxCell id="4xWppbJdqFPkYD1zHXKx-14" value="" style="rounded=0;whiteSpace=wrap;html=1;" vertex="1" parent="1">
          <mxGeometry x="1725" y="-1825" width="30" height="1010" as="geometry" />
        </mxCell>
        <mxCell id="4xWppbJdqFPkYD1zHXKx-15" value="CMD: CANCEL" style="text;html=1;align=center;verticalAlign=middle;resizable=0;points=[];autosize=1;strokeColor=none;fillColor=none;" vertex="1" parent="1">
          <mxGeometry x="1048.08" y="-1715" width="110" height="30" as="geometry" />
        </mxCell>
        <mxCell id="4xWppbJdqFPkYD1zHXKx-16" value="Mission state CANCELED" style="rounded=0;whiteSpace=wrap;html=1;" vertex="1" parent="1">
          <mxGeometry x="1680" y="-1665" width="120" height="60" as="geometry" />
        </mxCell>
        <mxCell id="4xWppbJdqFPkYD1zHXKx-64" style="edgeStyle=orthogonalEdgeStyle;rounded=0;orthogonalLoop=1;jettySize=auto;html=1;exitX=1;exitY=0.5;exitDx=0;exitDy=0;entryX=0;entryY=0.5;entryDx=0;entryDy=0;" edge="1" parent="1" source="4xWppbJdqFPkYD1zHXKx-17" target="4xWppbJdqFPkYD1zHXKx-63">
          <mxGeometry relative="1" as="geometry" />
        </mxCell>
        <mxCell id="4xWppbJdqFPkYD1zHXKx-17" value="Generate stopping traj (zero yaw)&lt;span style=&quot;color: rgba(0, 0, 0, 0); font-family: monospace; font-size: 0px; text-align: start; text-wrap: nowrap;&quot;&gt;%3CmxGraphModel%3E%3Croot%3E%3CmxCell%20id%3D%220%22%2F%3E%3CmxCell%20id%3D%221%22%20parent%3D%220%22%2F%3E%3CmxCell%20id%3D%222%22%20value%3D%22Mission%20state%20paused%22%20style%3D%22rounded%3D0%3BwhiteSpace%3Dwrap%3Bhtml%3D1%3B%22%20vertex%3D%221%22%20parent%3D%221%22%3E%3CmxGeometry%20x%3D%22160%22%20y%3D%22-1760%22%20width%3D%22120%22%20height%3D%2260%22%20as%3D%22geometry%22%2F%3E%3C%2FmxCell%3E%3C%2Froot%3E%3C%2FmxGraphModel%3E&lt;/span&gt;&lt;span style=&quot;color: rgba(0, 0, 0, 0); font-family: monospace; font-size: 0px; text-align: start; text-wrap: nowrap;&quot;&gt;%3CmxGraphModel%3E%3Croot%3E%3CmxCell%20id%3D%220%22%2F%3E%3CmxCell%20id%3D%221%22%20parent%3D%220%22%2F%3E%3CmxCell%20id%3D%222%22%20value%3D%22Mission%20state%20paused%22%20style%3D%22rounded%3D0%3BwhiteSpace%3Dwrap%3Bhtml%3D1%3B%22%20vertex%3D%221%22%20parent%3D%221%22%3E%3CmxGeometry%20x%3D%22160%22%20y%3D%22-1760%22%20width%3D%22120%22%20height%3D%2260%22%20as%3D%22geometry%22%2F%3E%3C%2FmxCell%3E%3C%2Froot%3E%3C%2FmxGraphModel%3E&lt;/span&gt;&lt;span style=&quot;color: rgba(0, 0, 0, 0); font-family: monospace; font-size: 0px; text-align: start; text-wrap: nowrap;&quot;&gt;%3CmxGraphModel%3E%3Croot%3E%3CmxCell%20id%3D%220%22%2F%3E%3CmxCell%20id%3D%221%22%20parent%3D%220%22%2F%3E%3CmxCell%20id%3D%222%22%20value%3D%22Mission%20state%20paused%22%20style%3D%22rounded%3D0%3BwhiteSpace%3Dwrap%3Bhtml%3D1%3B%22%20vertex%3D%221%22%20parent%3D%221%22%3E%3CmxGeometry%20x%3D%22160%22%20y%3D%22-1760%22%20width%3D%22120%22%20height%3D%2260%22%20as%3D%22geometry%22%2F%3E%3C%2FmxCell%3E%3C%2Froot%3E%3C%2FmxGraphModel%3E&lt;/span&gt;" style="rounded=0;whiteSpace=wrap;html=1;dashed=1;" vertex="1" parent="1">
          <mxGeometry x="1680" y="-1590" width="120" height="60" as="geometry" />
        </mxCell>
        <mxCell id="4xWppbJdqFPkYD1zHXKx-65" style="edgeStyle=orthogonalEdgeStyle;rounded=0;orthogonalLoop=1;jettySize=auto;html=1;exitX=1;exitY=0.5;exitDx=0;exitDy=0;endArrow=none;endFill=0;" edge="1" parent="1" source="4xWppbJdqFPkYD1zHXKx-18">
          <mxGeometry relative="1" as="geometry">
            <mxPoint x="1830" y="-1520" as="targetPoint" />
            <Array as="points">
              <mxPoint x="1830" y="-1480" />
            </Array>
          </mxGeometry>
        </mxCell>
        <mxCell id="4xWppbJdqFPkYD1zHXKx-18" value="Abort current traj and clear all queue" style="rounded=0;whiteSpace=wrap;html=1;dashed=1;" vertex="1" parent="1">
          <mxGeometry x="1680" y="-1510" width="120" height="60" as="geometry" />
        </mxCell>
        <mxCell id="4xWppbJdqFPkYD1zHXKx-19" value="Cancel mission" style="rounded=0;whiteSpace=wrap;html=1;" vertex="1" parent="1">
          <mxGeometry x="845" y="-1767" width="120" height="60" as="geometry" />
        </mxCell>
        <mxCell id="4xWppbJdqFPkYD1zHXKx-25" value="&lt;span style=&quot;color: rgba(0, 0, 0, 0); font-family: monospace; font-size: 0px; text-align: start;&quot;&gt;%3CmxGraphModel%3E%3Croot%3E%3CmxCell%20id%3D%220%22%2F%3E%3CmxCell%20id%3D%221%22%20parent%3D%220%22%2F%3E%3CmxCell%20id%3D%222%22%20value%3D%22%26lt%3Bdiv%20style%3D%26quot%3Btext-align%3A%20justify%3B%26quot%3B%26gt%3B%26lt%3Bspan%20style%3D%26quot%3Bfont-size%3A%2014px%3B%26quot%3B%26gt%3B-%20Create%20an%20RTL%20manager%20in%20PFL.%26lt%3B%2Fspan%26gt%3B%26lt%3B%2Fdiv%26gt%3B%26lt%3Bdiv%20style%3D%26quot%3Btext-align%3A%20justify%3B%26quot%3B%26gt%3B%26lt%3Bspan%20style%3D%26quot%3Bfont-size%3A%2014px%3B%26quot%3B%26gt%3B-%20Compute%20the%20trajectory%20inside%20RTL%20manager.%26lt%3B%2Fspan%26gt%3B%26lt%3B%2Fdiv%26gt%3B%26lt%3Bdiv%20style%3D%26quot%3Btext-align%3A%20justify%3B%26quot%3B%26gt%3B%26lt%3Bspan%20style%3D%26quot%3Bfont-size%3A%2014px%3B%26quot%3B%26gt%3B-%20Carry%20the%20logic%20inside%20RTL%20manager.%26lt%3B%2Fspan%26gt%3B%26lt%3B%2Fdiv%26gt%3B%26lt%3Bdiv%20style%3D%26quot%3Btext-align%3A%20justify%3B%26quot%3B%26gt%3B%26lt%3Bspan%20style%3D%26quot%3Bfont-size%3A%2014px%3B%26quot%3B%26gt%3B-%20Can%20other%20systems%20call%20RTL%20manager%20for%20RTL%20init%2C%26lt%3B%2Fspan%26gt%3B%26lt%3B%2Fdiv%26gt%3B%26lt%3Bdiv%20style%3D%26quot%3Btext-align%3A%20justify%3B%26quot%3B%26gt%3B%26lt%3Bspan%20style%3D%26quot%3Bfont-size%3A%2014px%3B%26quot%3B%26gt%3Bfor%20example%3A%20SDK%20Manager%2C%20QGC%2C%20SafetyManager.%26lt%3B%2Fspan%26gt%3B%26lt%3B%2Fdiv%26gt%3B%22%20style%3D%22text%3Bhtml%3D1%3Balign%3Dcenter%3BverticalAlign%3Dmiddle%3BwhiteSpace%3Dwrap%3Brounded%3D0%3BstrokeWidth%3D3%3BfillColor%3D%23e3c800%3BstrokeColor%3D%23B09500%3BfontStyle%3D1%3Bdashed%3D1%3BfontColor%3D%23000000%3B%22%20vertex%3D%221%22%20parent%3D%221%22%3E%3CmxGeometry%20x%3D%22430%22%20y%3D%22390%22%20width%3D%22350%22%20height%3D%22160%22%20as%3D%22geometry%22%2F%3E%3C%2FmxCell%3E%3C%2Froot%3E%3C%2FmxGraphModel%3E&lt;/span&gt;" style="text;html=1;align=center;verticalAlign=middle;resizable=0;points=[];autosize=1;strokeColor=none;fillColor=none;" vertex="1" parent="1">
          <mxGeometry x="745" y="-1752" width="20" height="30" as="geometry" />
        </mxCell>
        <mxCell id="4xWppbJdqFPkYD1zHXKx-26" value="" style="endArrow=classic;html=1;rounded=0;exitX=0.876;exitY=0.054;exitDx=0;exitDy=0;exitPerimeter=0;entryX=-0.006;entryY=0.03;entryDx=0;entryDy=0;entryPerimeter=0;dashed=1;" edge="1" parent="1">
          <mxGeometry width="50" height="50" relative="1" as="geometry">
            <mxPoint x="920.0000000000002" y="-1680.5" as="sourcePoint" />
            <mxPoint x="1724.8200000000002" y="-1680.2" as="targetPoint" />
            <Array as="points">
              <mxPoint x="1108.72" y="-1680.04" />
            </Array>
          </mxGeometry>
        </mxCell>
        <mxCell id="4xWppbJdqFPkYD1zHXKx-27" value="CMD: CANCEL" style="text;html=1;align=center;verticalAlign=middle;resizable=0;points=[];autosize=1;strokeColor=none;fillColor=none;" vertex="1" parent="1">
          <mxGeometry x="1048.72" y="-1825" width="110" height="30" as="geometry" />
        </mxCell>
        <mxCell id="4xWppbJdqFPkYD1zHXKx-30" value="&lt;h1 style=&quot;margin-top: 0px;&quot;&gt;CMD: CANCEL&lt;/h1&gt;&lt;p&gt;Cancel command includes cancelation behaviour, the default behaviour is hover. Possible options: RTL, LIP, HOVER. It can also receive a new mission after cancelation.&lt;/p&gt;" style="text;html=1;whiteSpace=wrap;overflow=hidden;rounded=0;" vertex="1" parent="1">
          <mxGeometry x="1820" y="-1745" width="190" height="165" as="geometry" />
        </mxCell>
        <mxCell id="4xWppbJdqFPkYD1zHXKx-31" value="" style="endArrow=classic;html=1;rounded=0;exitX=0.067;exitY=0.023;exitDx=0;exitDy=0;exitPerimeter=0;entryX=0.9;entryY=0.023;entryDx=0;entryDy=0;entryPerimeter=0;dashed=1;" edge="1" parent="1" source="4xWppbJdqFPkYD1zHXKx-13" target="4xWppbJdqFPkYD1zHXKx-12">
          <mxGeometry width="50" height="50" relative="1" as="geometry">
            <mxPoint x="1270" y="-1615" as="sourcePoint" />
            <mxPoint x="1320" y="-1665" as="targetPoint" />
          </mxGeometry>
        </mxCell>
        <mxCell id="4xWppbJdqFPkYD1zHXKx-34" value="&lt;b&gt;&lt;font style=&quot;font-size: 40px;&quot;&gt;QGC/API&lt;/font&gt;&lt;/b&gt;" style="text;html=1;align=center;verticalAlign=middle;whiteSpace=wrap;rounded=0;" vertex="1" parent="1">
          <mxGeometry x="2750" y="-1870" width="320" height="60" as="geometry" />
        </mxCell>
        <mxCell id="4xWppbJdqFPkYD1zHXKx-35" value="&lt;b&gt;&lt;font style=&quot;font-size: 40px;&quot;&gt;SDK&lt;/font&gt;&lt;/b&gt;" style="text;html=1;align=center;verticalAlign=middle;whiteSpace=wrap;rounded=0;" vertex="1" parent="1">
          <mxGeometry x="2320" y="-1870" width="320" height="60" as="geometry" />
        </mxCell>
        <mxCell id="4xWppbJdqFPkYD1zHXKx-36" style="edgeStyle=orthogonalEdgeStyle;rounded=0;orthogonalLoop=1;jettySize=auto;html=1;exitX=0;exitY=0;exitDx=0;exitDy=0;" edge="1" parent="1" source="4xWppbJdqFPkYD1zHXKx-37">
          <mxGeometry relative="1" as="geometry">
            <mxPoint x="3140" y="-1870" as="targetPoint" />
          </mxGeometry>
        </mxCell>
        <mxCell id="4xWppbJdqFPkYD1zHXKx-37" value="&lt;b&gt;&lt;font style=&quot;font-size: 40px;&quot;&gt;FC&lt;/font&gt;&lt;/b&gt;" style="text;html=1;align=center;verticalAlign=middle;whiteSpace=wrap;rounded=0;" vertex="1" parent="1">
          <mxGeometry x="3150" y="-1870" width="320" height="60" as="geometry" />
        </mxCell>
        <mxCell id="4xWppbJdqFPkYD1zHXKx-38" value="" style="rounded=0;whiteSpace=wrap;html=1;" vertex="1" parent="1">
          <mxGeometry x="2460" y="-1790" width="30" height="1010" as="geometry" />
        </mxCell>
        <mxCell id="4xWppbJdqFPkYD1zHXKx-39" value="" style="rounded=0;whiteSpace=wrap;html=1;" vertex="1" parent="1">
          <mxGeometry x="2895" y="-1790" width="30" height="1010" as="geometry" />
        </mxCell>
        <mxCell id="4xWppbJdqFPkYD1zHXKx-40" value="" style="rounded=0;whiteSpace=wrap;html=1;" vertex="1" parent="1">
          <mxGeometry x="3295" y="-1800" width="30" height="1010" as="geometry" />
        </mxCell>
        <mxCell id="4xWppbJdqFPkYD1zHXKx-42" value="Mission state ABORTED" style="rounded=0;whiteSpace=wrap;html=1;" vertex="1" parent="1">
          <mxGeometry x="3250" y="-1707" width="120" height="60" as="geometry" />
        </mxCell>
        <mxCell id="4xWppbJdqFPkYD1zHXKx-43" value="Generate stopping traj (zero yaw)&lt;span style=&quot;color: rgba(0, 0, 0, 0); font-family: monospace; font-size: 0px; text-align: start; text-wrap: nowrap;&quot;&gt;%3CmxGraphModel%3E%3Croot%3E%3CmxCell%20id%3D%220%22%2F%3E%3CmxCell%20id%3D%221%22%20parent%3D%220%22%2F%3E%3CmxCell%20id%3D%222%22%20value%3D%22Mission%20state%20paused%22%20style%3D%22rounded%3D0%3BwhiteSpace%3Dwrap%3Bhtml%3D1%3B%22%20vertex%3D%221%22%20parent%3D%221%22%3E%3CmxGeometry%20x%3D%22160%22%20y%3D%22-1760%22%20width%3D%22120%22%20height%3D%2260%22%20as%3D%22geometry%22%2F%3E%3C%2FmxCell%3E%3C%2Froot%3E%3C%2FmxGraphModel%3E&lt;/span&gt;&lt;span style=&quot;color: rgba(0, 0, 0, 0); font-family: monospace; font-size: 0px; text-align: start; text-wrap: nowrap;&quot;&gt;%3CmxGraphModel%3E%3Croot%3E%3CmxCell%20id%3D%220%22%2F%3E%3CmxCell%20id%3D%221%22%20parent%3D%220%22%2F%3E%3CmxCell%20id%3D%222%22%20value%3D%22Mission%20state%20paused%22%20style%3D%22rounded%3D0%3BwhiteSpace%3Dwrap%3Bhtml%3D1%3B%22%20vertex%3D%221%22%20parent%3D%221%22%3E%3CmxGeometry%20x%3D%22160%22%20y%3D%22-1760%22%20width%3D%22120%22%20height%3D%2260%22%20as%3D%22geometry%22%2F%3E%3C%2FmxCell%3E%3C%2Froot%3E%3C%2FmxGraphModel%3E&lt;/span&gt;&lt;span style=&quot;color: rgba(0, 0, 0, 0); font-family: monospace; font-size: 0px; text-align: start; text-wrap: nowrap;&quot;&gt;%3CmxGraphModel%3E%3Croot%3E%3CmxCell%20id%3D%220%22%2F%3E%3CmxCell%20id%3D%221%22%20parent%3D%220%22%2F%3E%3CmxCell%20id%3D%222%22%20value%3D%22Mission%20state%20paused%22%20style%3D%22rounded%3D0%3BwhiteSpace%3Dwrap%3Bhtml%3D1%3B%22%20vertex%3D%221%22%20parent%3D%221%22%3E%3CmxGeometry%20x%3D%22160%22%20y%3D%22-1760%22%20width%3D%22120%22%20height%3D%2260%22%20as%3D%22geometry%22%2F%3E%3C%2FmxCell%3E%3C%2Froot%3E%3C%2FmxGraphModel%3E&lt;/span&gt;" style="rounded=0;whiteSpace=wrap;html=1;" vertex="1" parent="1">
          <mxGeometry x="3250" y="-1640" width="120" height="60" as="geometry" />
        </mxCell>
        <mxCell id="4xWppbJdqFPkYD1zHXKx-44" value="Abort current traj and clear all queue" style="rounded=0;whiteSpace=wrap;html=1;" vertex="1" parent="1">
          <mxGeometry x="3250" y="-1570" width="120" height="60" as="geometry" />
        </mxCell>
        <mxCell id="4xWppbJdqFPkYD1zHXKx-51" value="&lt;span style=&quot;color: rgba(0, 0, 0, 0); font-family: monospace; font-size: 0px; text-align: start;&quot;&gt;%3CmxGraphModel%3E%3Croot%3E%3CmxCell%20id%3D%220%22%2F%3E%3CmxCell%20id%3D%221%22%20parent%3D%220%22%2F%3E%3CmxCell%20id%3D%222%22%20value%3D%22%26lt%3Bdiv%20style%3D%26quot%3Btext-align%3A%20justify%3B%26quot%3B%26gt%3B%26lt%3Bspan%20style%3D%26quot%3Bfont-size%3A%2014px%3B%26quot%3B%26gt%3B-%20Create%20an%20RTL%20manager%20in%20PFL.%26lt%3B%2Fspan%26gt%3B%26lt%3B%2Fdiv%26gt%3B%26lt%3Bdiv%20style%3D%26quot%3Btext-align%3A%20justify%3B%26quot%3B%26gt%3B%26lt%3Bspan%20style%3D%26quot%3Bfont-size%3A%2014px%3B%26quot%3B%26gt%3B-%20Compute%20the%20trajectory%20inside%20RTL%20manager.%26lt%3B%2Fspan%26gt%3B%26lt%3B%2Fdiv%26gt%3B%26lt%3Bdiv%20style%3D%26quot%3Btext-align%3A%20justify%3B%26quot%3B%26gt%3B%26lt%3Bspan%20style%3D%26quot%3Bfont-size%3A%2014px%3B%26quot%3B%26gt%3B-%20Carry%20the%20logic%20inside%20RTL%20manager.%26lt%3B%2Fspan%26gt%3B%26lt%3B%2Fdiv%26gt%3B%26lt%3Bdiv%20style%3D%26quot%3Btext-align%3A%20justify%3B%26quot%3B%26gt%3B%26lt%3Bspan%20style%3D%26quot%3Bfont-size%3A%2014px%3B%26quot%3B%26gt%3B-%20Can%20other%20systems%20call%20RTL%20manager%20for%20RTL%20init%2C%26lt%3B%2Fspan%26gt%3B%26lt%3B%2Fdiv%26gt%3B%26lt%3Bdiv%20style%3D%26quot%3Btext-align%3A%20justify%3B%26quot%3B%26gt%3B%26lt%3Bspan%20style%3D%26quot%3Bfont-size%3A%2014px%3B%26quot%3B%26gt%3Bfor%20example%3A%20SDK%20Manager%2C%20QGC%2C%20SafetyManager.%26lt%3B%2Fspan%26gt%3B%26lt%3B%2Fdiv%26gt%3B%22%20style%3D%22text%3Bhtml%3D1%3Balign%3Dcenter%3BverticalAlign%3Dmiddle%3BwhiteSpace%3Dwrap%3Brounded%3D0%3BstrokeWidth%3D3%3BfillColor%3D%23e3c800%3BstrokeColor%3D%23B09500%3BfontStyle%3D1%3Bdashed%3D1%3BfontColor%3D%23000000%3B%22%20vertex%3D%221%22%20parent%3D%221%22%3E%3CmxGeometry%20x%3D%22430%22%20y%3D%22390%22%20width%3D%22350%22%20height%3D%22160%22%20as%3D%22geometry%22%2F%3E%3C%2FmxCell%3E%3C%2Froot%3E%3C%2FmxGraphModel%3E&lt;/span&gt;" style="text;html=1;align=center;verticalAlign=middle;resizable=0;points=[];autosize=1;strokeColor=none;fillColor=none;" vertex="1" parent="1">
          <mxGeometry x="2315" y="-1727" width="20" height="30" as="geometry" />
        </mxCell>
        <mxCell id="4xWppbJdqFPkYD1zHXKx-53" value="CMD: ABORT" style="text;html=1;align=center;verticalAlign=middle;resizable=0;points=[];autosize=1;strokeColor=none;fillColor=none;" vertex="1" parent="1">
          <mxGeometry x="3050" y="-1757" width="100" height="30" as="geometry" />
        </mxCell>
        <mxCell id="4xWppbJdqFPkYD1zHXKx-56" value="&lt;h1 style=&quot;margin-top: 0px;&quot;&gt;CMD: ABORT&lt;/h1&gt;&lt;p&gt;Abort command directly goes to the FC and stops the drone canceling the mission.&lt;/p&gt;" style="text;html=1;whiteSpace=wrap;overflow=hidden;rounded=0;" vertex="1" parent="1">
          <mxGeometry x="3390" y="-1732" width="180" height="110" as="geometry" />
        </mxCell>
        <mxCell id="4xWppbJdqFPkYD1zHXKx-57" value="" style="endArrow=classic;html=1;rounded=0;exitX=1.033;exitY=0.032;exitDx=0;exitDy=0;exitPerimeter=0;entryX=0.033;entryY=0.04;entryDx=0;entryDy=0;entryPerimeter=0;dashed=1;" edge="1" parent="1">
          <mxGeometry width="50" height="50" relative="1" as="geometry">
            <mxPoint x="2925" y="-1720.08" as="sourcePoint" />
            <mxPoint x="3295" y="-1722" as="targetPoint" />
          </mxGeometry>
        </mxCell>
        <mxCell id="4xWppbJdqFPkYD1zHXKx-61" value="Execute the cancelation action." style="rounded=0;whiteSpace=wrap;html=1;" vertex="1" parent="1">
          <mxGeometry x="1680" y="-1430" width="120" height="60" as="geometry" />
        </mxCell>
        <mxCell id="4xWppbJdqFPkYD1zHXKx-62" value="&lt;div style=&quot;text-align: justify;&quot;&gt;&lt;span style=&quot;font-size: 14px;&quot;&gt;Only waypoint mission steps has the smooth_stop pausing behaviour. Other steps may just not do anyhting at all here.&lt;/span&gt;&lt;/div&gt;" style="text;html=1;align=center;verticalAlign=middle;whiteSpace=wrap;rounded=0;strokeWidth=3;fillColor=#e3c800;strokeColor=#B09500;fontStyle=1;dashed=1;fontColor=#000000;" vertex="1" parent="1">
          <mxGeometry x="260" y="-1544" width="230" height="94" as="geometry" />
        </mxCell>
        <mxCell id="4xWppbJdqFPkYD1zHXKx-63" value="&lt;div style=&quot;text-align: justify;&quot;&gt;&lt;span style=&quot;font-size: 14px;&quot;&gt;Cancelation behaviour also include the pausing motion behaviour as a parameter.&lt;/span&gt;&lt;/div&gt;" style="text;html=1;align=center;verticalAlign=middle;whiteSpace=wrap;rounded=0;strokeWidth=3;fillColor=#e3c800;strokeColor=#B09500;fontStyle=1;dashed=1;fontColor=#000000;" vertex="1" parent="1">
          <mxGeometry x="1860" y="-1550" width="230" height="70" as="geometry" />
        </mxCell>
        <mxCell id="4xWppbJdqFPkYD1zHXKx-68" value="CMD: ABORT" style="text;html=1;align=center;verticalAlign=middle;resizable=0;points=[];autosize=1;strokeColor=none;fillColor=none;" vertex="1" parent="1">
          <mxGeometry x="2655" y="-1757" width="100" height="30" as="geometry" />
        </mxCell>
        <mxCell id="4xWppbJdqFPkYD1zHXKx-69" value="" style="endArrow=none;html=1;rounded=0;exitX=1;exitY=0.067;exitDx=0;exitDy=0;exitPerimeter=0;entryX=0.033;entryY=0.04;entryDx=0;entryDy=0;entryPerimeter=0;dashed=1;startArrow=classic;startFill=1;endFill=0;" edge="1" parent="1" source="4xWppbJdqFPkYD1zHXKx-38">
          <mxGeometry width="50" height="50" relative="1" as="geometry">
            <mxPoint x="2525" y="-1720.08" as="sourcePoint" />
            <mxPoint x="2895" y="-1722" as="targetPoint" />
          </mxGeometry>
        </mxCell>
        <mxCell id="4xWppbJdqFPkYD1zHXKx-70" value="&lt;b&gt;&lt;font&gt;Manual Control&lt;/font&gt;&lt;/b&gt;" style="text;html=1;align=center;verticalAlign=middle;whiteSpace=wrap;rounded=0;fontSize=50;" vertex="1" parent="1">
          <mxGeometry x="4030" y="-2070" width="1320" height="100" as="geometry" />
        </mxCell>
        <mxCell id="4xWppbJdqFPkYD1zHXKx-72" value="&lt;b&gt;&lt;font style=&quot;font-size: 40px;&quot;&gt;QGC/API&lt;/font&gt;&lt;/b&gt;" style="text;html=1;align=center;verticalAlign=middle;whiteSpace=wrap;rounded=0;" vertex="1" parent="1">
          <mxGeometry x="4540" y="-1880" width="320" height="60" as="geometry" />
        </mxCell>
        <mxCell id="4xWppbJdqFPkYD1zHXKx-73" value="&lt;b&gt;&lt;font style=&quot;font-size: 40px;&quot;&gt;SDK&lt;/font&gt;&lt;/b&gt;" style="text;html=1;align=center;verticalAlign=middle;whiteSpace=wrap;rounded=0;" vertex="1" parent="1">
          <mxGeometry x="4110" y="-1880" width="320" height="60" as="geometry" />
        </mxCell>
        <mxCell id="4xWppbJdqFPkYD1zHXKx-74" style="edgeStyle=orthogonalEdgeStyle;rounded=0;orthogonalLoop=1;jettySize=auto;html=1;exitX=0;exitY=0;exitDx=0;exitDy=0;" edge="1" parent="1" source="4xWppbJdqFPkYD1zHXKx-75">
          <mxGeometry relative="1" as="geometry">
            <mxPoint x="4930" y="-1880" as="targetPoint" />
          </mxGeometry>
        </mxCell>
        <mxCell id="4xWppbJdqFPkYD1zHXKx-75" value="&lt;b&gt;&lt;font style=&quot;font-size: 40px;&quot;&gt;FC&lt;/font&gt;&lt;/b&gt;" style="text;html=1;align=center;verticalAlign=middle;whiteSpace=wrap;rounded=0;" vertex="1" parent="1">
          <mxGeometry x="4940" y="-1880" width="320" height="60" as="geometry" />
        </mxCell>
        <mxCell id="4xWppbJdqFPkYD1zHXKx-76" value="" style="rounded=0;whiteSpace=wrap;html=1;" vertex="1" parent="1">
          <mxGeometry x="4250" y="-1800" width="30" height="1010" as="geometry" />
        </mxCell>
        <mxCell id="4xWppbJdqFPkYD1zHXKx-77" value="" style="rounded=0;whiteSpace=wrap;html=1;" vertex="1" parent="1">
          <mxGeometry x="4685" y="-1800" width="30" height="1010" as="geometry" />
        </mxCell>
        <mxCell id="4xWppbJdqFPkYD1zHXKx-78" value="" style="rounded=0;whiteSpace=wrap;html=1;" vertex="1" parent="1">
          <mxGeometry x="5085" y="-1810" width="30" height="1010" as="geometry" />
        </mxCell>
        <mxCell id="4xWppbJdqFPkYD1zHXKx-79" value="Mission state JOYSTICK_CTRL" style="rounded=0;whiteSpace=wrap;html=1;" vertex="1" parent="1">
          <mxGeometry x="5040" y="-1630" width="120" height="60" as="geometry" />
        </mxCell>
        <mxCell id="4xWppbJdqFPkYD1zHXKx-80" value="Check if Joystick is in the reference position." style="rounded=0;whiteSpace=wrap;html=1;" vertex="1" parent="1">
          <mxGeometry x="5040" y="-1563" width="120" height="60" as="geometry" />
        </mxCell>
        <mxCell id="4xWppbJdqFPkYD1zHXKx-81" value="Activate Joystick commands" style="rounded=0;whiteSpace=wrap;html=1;" vertex="1" parent="1">
          <mxGeometry x="5040" y="-1493" width="120" height="60" as="geometry" />
        </mxCell>
        <mxCell id="4xWppbJdqFPkYD1zHXKx-82" value="CMD: ACTIVATE_JOYSTICK" style="text;html=1;align=center;verticalAlign=middle;resizable=0;points=[];autosize=1;strokeColor=none;fillColor=none;" vertex="1" parent="1">
          <mxGeometry x="4800" y="-1767" width="180" height="30" as="geometry" />
        </mxCell>
        <mxCell id="4xWppbJdqFPkYD1zHXKx-84" value="" style="endArrow=classic;html=1;rounded=0;exitX=1.033;exitY=0.032;exitDx=0;exitDy=0;exitPerimeter=0;entryX=0.033;entryY=0.04;entryDx=0;entryDy=0;entryPerimeter=0;dashed=1;" edge="1" parent="1">
          <mxGeometry width="50" height="50" relative="1" as="geometry">
            <mxPoint x="4715" y="-1730.08" as="sourcePoint" />
            <mxPoint x="5085" y="-1732" as="targetPoint" />
          </mxGeometry>
        </mxCell>
        <mxCell id="4xWppbJdqFPkYD1zHXKx-87" value="CMD: ACTIVATE_JOYSTICK" style="text;html=1;align=center;verticalAlign=middle;resizable=0;points=[];autosize=1;strokeColor=none;fillColor=none;" vertex="1" parent="1">
          <mxGeometry x="4365" y="-1726.92" width="180" height="30" as="geometry" />
        </mxCell>
        <mxCell id="4xWppbJdqFPkYD1zHXKx-88" value="" style="endArrow=classic;html=1;rounded=0;exitX=1.033;exitY=0.032;exitDx=0;exitDy=0;exitPerimeter=0;entryX=-0.044;entryY=0.115;entryDx=0;entryDy=0;entryPerimeter=0;dashed=1;" edge="1" parent="1" target="4xWppbJdqFPkYD1zHXKx-78">
          <mxGeometry width="50" height="50" relative="1" as="geometry">
            <mxPoint x="4280" y="-1690" as="sourcePoint" />
            <mxPoint x="4650" y="-1691.92" as="targetPoint" />
          </mxGeometry>
        </mxCell>
        <mxCell id="4xWppbJdqFPkYD1zHXKx-89" value="CMD: DEACTIVATE_JOYSTICK" style="text;html=1;align=center;verticalAlign=middle;resizable=0;points=[];autosize=1;strokeColor=none;fillColor=none;" vertex="1" parent="1">
          <mxGeometry x="4790" y="-1410" width="200" height="30" as="geometry" />
        </mxCell>
        <mxCell id="4xWppbJdqFPkYD1zHXKx-90" value="" style="endArrow=classic;html=1;rounded=0;exitX=1.033;exitY=0.032;exitDx=0;exitDy=0;exitPerimeter=0;entryX=0.033;entryY=0.04;entryDx=0;entryDy=0;entryPerimeter=0;dashed=1;" edge="1" parent="1">
          <mxGeometry width="50" height="50" relative="1" as="geometry">
            <mxPoint x="4715" y="-1373.08" as="sourcePoint" />
            <mxPoint x="5085" y="-1375" as="targetPoint" />
          </mxGeometry>
        </mxCell>
        <mxCell id="4xWppbJdqFPkYD1zHXKx-91" value="CMD: DEACTIVATE_JOYSTICK" style="text;html=1;align=center;verticalAlign=middle;resizable=0;points=[];autosize=1;strokeColor=none;fillColor=none;" vertex="1" parent="1">
          <mxGeometry x="4355" y="-1369.92" width="200" height="30" as="geometry" />
        </mxCell>
        <mxCell id="4xWppbJdqFPkYD1zHXKx-92" value="" style="endArrow=classic;html=1;rounded=0;exitX=1.033;exitY=0.032;exitDx=0;exitDy=0;exitPerimeter=0;entryX=-0.044;entryY=0.115;entryDx=0;entryDy=0;entryPerimeter=0;dashed=1;" edge="1" parent="1">
          <mxGeometry width="50" height="50" relative="1" as="geometry">
            <mxPoint x="4280" y="-1333" as="sourcePoint" />
            <mxPoint x="5084" y="-1337" as="targetPoint" />
          </mxGeometry>
        </mxCell>
        <mxCell id="4xWppbJdqFPkYD1zHXKx-93" value="Mission state {PAUSED, CANCELED, ABORTED}" style="rounded=0;whiteSpace=wrap;html=1;" vertex="1" parent="1">
          <mxGeometry x="5040" y="-1812" width="120" height="60" as="geometry" />
        </mxCell>
        <mxCell id="4xWppbJdqFPkYD1zHXKx-94" value="Deactivate Joystick commands" style="rounded=0;whiteSpace=wrap;html=1;" vertex="1" parent="1">
          <mxGeometry x="5040" y="-1220" width="120" height="60" as="geometry" />
        </mxCell>
        <mxCell id="4xWppbJdqFPkYD1zHXKx-95" value="Mission state {PAUSED, CANCELED, ABORTED}" style="rounded=0;whiteSpace=wrap;html=1;" vertex="1" parent="1">
          <mxGeometry x="5040" y="-1300" width="120" height="60" as="geometry" />
        </mxCell>
        <mxCell id="4xWppbJdqFPkYD1zHXKx-96" value="" style="endArrow=none;dashed=1;html=1;rounded=0;" edge="1" parent="1">
          <mxGeometry width="50" height="50" relative="1" as="geometry">
            <mxPoint x="4150" y="-1090" as="sourcePoint" />
            <mxPoint x="5260" y="-1090" as="targetPoint" />
          </mxGeometry>
        </mxCell>
        <mxCell id="4xWppbJdqFPkYD1zHXKx-97" value="Mission state JOYSTICK_CTRL" style="rounded=0;whiteSpace=wrap;html=1;" vertex="1" parent="1">
          <mxGeometry x="5040" y="-1050" width="120" height="60" as="geometry" />
        </mxCell>
        <mxCell id="4xWppbJdqFPkYD1zHXKx-98" value="CMD: RESUME" style="text;html=1;align=center;verticalAlign=middle;resizable=0;points=[];autosize=1;strokeColor=none;fillColor=none;" vertex="1" parent="1">
          <mxGeometry x="4835" y="-980" width="110" height="30" as="geometry" />
        </mxCell>
        <mxCell id="4xWppbJdqFPkYD1zHXKx-99" value="" style="endArrow=classic;html=1;rounded=0;exitX=1.033;exitY=0.032;exitDx=0;exitDy=0;exitPerimeter=0;entryX=0.033;entryY=0.04;entryDx=0;entryDy=0;entryPerimeter=0;dashed=1;" edge="1" parent="1">
          <mxGeometry width="50" height="50" relative="1" as="geometry">
            <mxPoint x="4715" y="-943.0799999999999" as="sourcePoint" />
            <mxPoint x="5085" y="-945" as="targetPoint" />
          </mxGeometry>
        </mxCell>
        <mxCell id="4xWppbJdqFPkYD1zHXKx-100" value="CMD: RESUME" style="text;html=1;align=center;verticalAlign=middle;resizable=0;points=[];autosize=1;strokeColor=none;fillColor=none;" vertex="1" parent="1">
          <mxGeometry x="4400" y="-939.9200000000001" width="110" height="30" as="geometry" />
        </mxCell>
        <mxCell id="4xWppbJdqFPkYD1zHXKx-101" value="" style="endArrow=classic;html=1;rounded=0;exitX=1.033;exitY=0.032;exitDx=0;exitDy=0;exitPerimeter=0;entryX=-0.044;entryY=0.115;entryDx=0;entryDy=0;entryPerimeter=0;dashed=1;" edge="1" parent="1">
          <mxGeometry width="50" height="50" relative="1" as="geometry">
            <mxPoint x="4280" y="-903" as="sourcePoint" />
            <mxPoint x="5084" y="-907" as="targetPoint" />
          </mxGeometry>
        </mxCell>
        <mxCell id="4xWppbJdqFPkYD1zHXKx-103" value="Deactivate Joystick commands" style="rounded=0;whiteSpace=wrap;html=1;" vertex="1" parent="1">
          <mxGeometry x="5040" y="-800" width="120" height="60" as="geometry" />
        </mxCell>
        <mxCell id="4xWppbJdqFPkYD1zHXKx-104" value="Mission state RUNNING" style="rounded=0;whiteSpace=wrap;html=1;" vertex="1" parent="1">
          <mxGeometry x="5040" y="-880" width="120" height="60" as="geometry" />
        </mxCell>
        <mxCell id="4xWppbJdqFPkYD1zHXKx-105" value="&lt;div style=&quot;text-align: justify;&quot;&gt;&lt;span style=&quot;font-size: 14px;&quot;&gt;if any command comes to change the mission state such as resume during pause, then the Joystick control is automatically disabled as well.&lt;/span&gt;&lt;/div&gt;" style="text;html=1;align=center;verticalAlign=middle;whiteSpace=wrap;rounded=0;strokeWidth=3;fillColor=#e3c800;strokeColor=#B09500;fontStyle=1;dashed=1;fontColor=#000000;" vertex="1" parent="1">
          <mxGeometry x="5190" y="-990" width="290" height="120" as="geometry" />
        </mxCell>
      </root>
    </mxGraphModel>
  </diagram>
</mxfile>
